<mxfile host="app.diagrams.net" modified="2024-05-01T11:34:42.450Z" agent="Mozilla/5.0 (Macintosh; Intel Mac OS X 10_15_7) AppleWebKit/605.1.15 (KHTML, like Gecko) Version/17.2 Safari/605.1.15" etag="nx6JJglK1EwtrPxGBxxb" version="24.2.8" type="device">
  <diagram name="Page-1" id="rtuxL8n2dgHP2ygLvEmc">
    <mxGraphModel dx="1081" dy="902" grid="1" gridSize="10" guides="1" tooltips="1" connect="1" arrows="1" fold="1" page="1" pageScale="1" pageWidth="2336" pageHeight="1654" math="0" shadow="0">
      <root>
        <mxCell id="0" />
        <mxCell id="1" parent="0" />
        <mxCell id="7V1TkBBv_Iqoi1SeMiuH-3" value="&lt;p style=&quot;margin:0px;margin-top:4px;margin-left:10px;text-align:left;&quot;&gt;&lt;b&gt;act&lt;/b&gt;   [Main Loop]&lt;/p&gt;" style="html=1;shape=mxgraph.sysml.package;align=left;spacingLeft=5;verticalAlign=top;spacingTop=-3;labelX=135;html=1;overflow=fill;" vertex="1" parent="1">
          <mxGeometry x="1180" y="80" width="950" height="620" as="geometry" />
        </mxCell>
        <mxCell id="z5Cy-CX7h6eodBKxODUR-4" style="edgeStyle=orthogonalEdgeStyle;rounded=0;orthogonalLoop=1;jettySize=auto;html=1;exitX=0.5;exitY=1;exitDx=0;exitDy=0;entryX=0.5;entryY=0;entryDx=0;entryDy=0;" parent="1" source="z5Cy-CX7h6eodBKxODUR-1" target="z5Cy-CX7h6eodBKxODUR-2" edge="1">
          <mxGeometry relative="1" as="geometry" />
        </mxCell>
        <mxCell id="z5Cy-CX7h6eodBKxODUR-1" value="" style="ellipse;whiteSpace=wrap;html=1;aspect=fixed;strokeColor=#000000;fillColor=#000000;" parent="1" vertex="1">
          <mxGeometry x="1245" y="110" width="30" height="30" as="geometry" />
        </mxCell>
        <mxCell id="z5Cy-CX7h6eodBKxODUR-5" style="edgeStyle=orthogonalEdgeStyle;rounded=0;orthogonalLoop=1;jettySize=auto;html=1;exitX=1.01;exitY=0.837;exitDx=0;exitDy=0;exitPerimeter=0;" parent="1" source="z5Cy-CX7h6eodBKxODUR-2" edge="1">
          <mxGeometry relative="1" as="geometry">
            <mxPoint x="1500" y="300" as="targetPoint" />
            <Array as="points">
              <mxPoint x="1320" y="250" />
              <mxPoint x="1500" y="250" />
            </Array>
          </mxGeometry>
        </mxCell>
        <mxCell id="z5Cy-CX7h6eodBKxODUR-7" value="Room number entered" style="edgeLabel;html=1;align=center;verticalAlign=middle;resizable=0;points=[];" parent="z5Cy-CX7h6eodBKxODUR-5" vertex="1" connectable="0">
          <mxGeometry x="-0.1105" y="-3" relative="1" as="geometry">
            <mxPoint x="-21" y="-3" as="offset" />
          </mxGeometry>
        </mxCell>
        <mxCell id="z5Cy-CX7h6eodBKxODUR-2" value="Waiting at kitchen loading bay" style="rounded=1;whiteSpace=wrap;html=1;" parent="1" vertex="1">
          <mxGeometry x="1200" y="200" width="120" height="60" as="geometry" />
        </mxCell>
        <mxCell id="z5Cy-CX7h6eodBKxODUR-11" style="edgeStyle=orthogonalEdgeStyle;rounded=0;orthogonalLoop=1;jettySize=auto;html=1;exitX=0;exitY=0.5;exitDx=0;exitDy=0;entryX=0.5;entryY=1;entryDx=0;entryDy=0;" parent="1" source="z5Cy-CX7h6eodBKxODUR-9" target="z5Cy-CX7h6eodBKxODUR-2" edge="1">
          <mxGeometry relative="1" as="geometry">
            <mxPoint x="1280" y="440" as="targetPoint" />
          </mxGeometry>
        </mxCell>
        <mxCell id="z5Cy-CX7h6eodBKxODUR-12" value="No robot access" style="edgeLabel;html=1;align=center;verticalAlign=middle;resizable=0;points=[];" parent="z5Cy-CX7h6eodBKxODUR-11" vertex="1" connectable="0">
          <mxGeometry x="0.2026" y="-1" relative="1" as="geometry">
            <mxPoint x="58" y="1" as="offset" />
          </mxGeometry>
        </mxCell>
        <mxCell id="z5Cy-CX7h6eodBKxODUR-13" style="edgeStyle=orthogonalEdgeStyle;rounded=0;orthogonalLoop=1;jettySize=auto;html=1;exitX=0.5;exitY=1;exitDx=0;exitDy=0;entryX=0.5;entryY=0;entryDx=0;entryDy=0;" parent="1" source="z5Cy-CX7h6eodBKxODUR-9" edge="1" target="z5Cy-CX7h6eodBKxODUR-18">
          <mxGeometry relative="1" as="geometry">
            <mxPoint x="1500" y="440" as="targetPoint" />
          </mxGeometry>
        </mxCell>
        <mxCell id="z5Cy-CX7h6eodBKxODUR-14" value="Different &amp;nbsp;floor" style="edgeLabel;html=1;align=center;verticalAlign=middle;resizable=0;points=[];" parent="z5Cy-CX7h6eodBKxODUR-13" vertex="1" connectable="0">
          <mxGeometry x="-0.1564" relative="1" as="geometry">
            <mxPoint as="offset" />
          </mxGeometry>
        </mxCell>
        <mxCell id="z5Cy-CX7h6eodBKxODUR-15" style="edgeStyle=orthogonalEdgeStyle;rounded=0;orthogonalLoop=1;jettySize=auto;html=1;exitX=1;exitY=0.5;exitDx=0;exitDy=0;entryX=0;entryY=0.5;entryDx=0;entryDy=0;" parent="1" source="z5Cy-CX7h6eodBKxODUR-9" edge="1" target="z5Cy-CX7h6eodBKxODUR-17">
          <mxGeometry relative="1" as="geometry">
            <mxPoint x="1650" y="340" as="targetPoint" />
          </mxGeometry>
        </mxCell>
        <mxCell id="z5Cy-CX7h6eodBKxODUR-16" value="Ground level" style="edgeLabel;html=1;align=center;verticalAlign=middle;resizable=0;points=[];" parent="z5Cy-CX7h6eodBKxODUR-15" vertex="1" connectable="0">
          <mxGeometry x="-0.3119" y="2" relative="1" as="geometry">
            <mxPoint x="11" y="2" as="offset" />
          </mxGeometry>
        </mxCell>
        <mxCell id="z5Cy-CX7h6eodBKxODUR-9" value="" style="rhombus;whiteSpace=wrap;html=1;" parent="1" vertex="1">
          <mxGeometry x="1460" y="300.0010344827586" width="80" height="80" as="geometry" />
        </mxCell>
        <mxCell id="7V1TkBBv_Iqoi1SeMiuH-18" style="edgeStyle=orthogonalEdgeStyle;rounded=0;orthogonalLoop=1;jettySize=auto;html=1;exitX=1;exitY=0.5;exitDx=0;exitDy=0;entryX=0;entryY=0.5;entryDx=0;entryDy=0;" edge="1" parent="1" source="z5Cy-CX7h6eodBKxODUR-17" target="7V1TkBBv_Iqoi1SeMiuH-16">
          <mxGeometry relative="1" as="geometry" />
        </mxCell>
        <mxCell id="7V1TkBBv_Iqoi1SeMiuH-19" value="Robot belives its arrived" style="edgeLabel;html=1;align=center;verticalAlign=middle;resizable=0;points=[];" vertex="1" connectable="0" parent="7V1TkBBv_Iqoi1SeMiuH-18">
          <mxGeometry x="0.1217" y="3" relative="1" as="geometry">
            <mxPoint y="14" as="offset" />
          </mxGeometry>
        </mxCell>
        <mxCell id="z5Cy-CX7h6eodBKxODUR-17" value="act2: Moving to room" style="rounded=1;whiteSpace=wrap;html=1;" parent="1" vertex="1">
          <mxGeometry x="1670" y="310" width="140" height="60" as="geometry" />
        </mxCell>
        <mxCell id="z5Cy-CX7h6eodBKxODUR-19" style="edgeStyle=orthogonalEdgeStyle;rounded=0;orthogonalLoop=1;jettySize=auto;html=1;exitX=1;exitY=0.5;exitDx=0;exitDy=0;entryX=0.5;entryY=1;entryDx=0;entryDy=0;dashed=1;" parent="1" source="z5Cy-CX7h6eodBKxODUR-18" target="z5Cy-CX7h6eodBKxODUR-17" edge="1">
          <mxGeometry relative="1" as="geometry" />
        </mxCell>
        <mxCell id="z5Cy-CX7h6eodBKxODUR-18" value="act3: Taking lift" style="rounded=1;whiteSpace=wrap;html=1;" parent="1" vertex="1">
          <mxGeometry x="1430" y="460" width="140" height="60" as="geometry" />
        </mxCell>
        <mxCell id="z5Cy-CX7h6eodBKxODUR-34" value="" style="edgeStyle=orthogonalEdgeStyle;rounded=0;orthogonalLoop=1;jettySize=auto;html=1;" parent="1" source="z5Cy-CX7h6eodBKxODUR-20" target="z5Cy-CX7h6eodBKxODUR-31" edge="1">
          <mxGeometry relative="1" as="geometry" />
        </mxCell>
        <mxCell id="7V1TkBBv_Iqoi1SeMiuH-4" value="Delivered" style="edgeLabel;html=1;align=center;verticalAlign=middle;resizable=0;points=[];" vertex="1" connectable="0" parent="z5Cy-CX7h6eodBKxODUR-34">
          <mxGeometry x="-0.0881" y="1" relative="1" as="geometry">
            <mxPoint as="offset" />
          </mxGeometry>
        </mxCell>
        <mxCell id="z5Cy-CX7h6eodBKxODUR-20" value="" style="rounded=1;whiteSpace=wrap;html=1;" parent="1" vertex="1">
          <mxGeometry x="1920" y="370" width="190" height="50" as="geometry" />
        </mxCell>
        <mxCell id="z5Cy-CX7h6eodBKxODUR-23" value="Delivering the food" style="text;strokeColor=none;fillColor=none;align=left;verticalAlign=middle;spacingLeft=4;spacingRight=4;overflow=hidden;points=[[0,0.5],[1,0.5]];portConstraint=eastwest;rotatable=0;whiteSpace=wrap;html=1;" parent="1" vertex="1">
          <mxGeometry x="1960" y="380" width="140" height="30" as="geometry" />
        </mxCell>
        <mxCell id="z5Cy-CX7h6eodBKxODUR-35" style="edgeStyle=orthogonalEdgeStyle;rounded=0;orthogonalLoop=1;jettySize=auto;html=1;exitX=0;exitY=0.5;exitDx=0;exitDy=0;entryX=1;entryY=0.5;entryDx=0;entryDy=0;" parent="1" source="z5Cy-CX7h6eodBKxODUR-31" target="z5Cy-CX7h6eodBKxODUR-32" edge="1">
          <mxGeometry relative="1" as="geometry">
            <mxPoint x="1820" y="580.3333333333335" as="targetPoint" />
          </mxGeometry>
        </mxCell>
        <mxCell id="z5Cy-CX7h6eodBKxODUR-37" value="Higher floor" style="edgeLabel;html=1;align=center;verticalAlign=middle;resizable=0;points=[];" parent="z5Cy-CX7h6eodBKxODUR-35" vertex="1" connectable="0">
          <mxGeometry x="0.2214" relative="1" as="geometry">
            <mxPoint x="56" as="offset" />
          </mxGeometry>
        </mxCell>
        <mxCell id="z5Cy-CX7h6eodBKxODUR-36" style="edgeStyle=orthogonalEdgeStyle;rounded=0;orthogonalLoop=1;jettySize=auto;html=1;exitX=0.5;exitY=1;exitDx=0;exitDy=0;entryX=0.5;entryY=1;entryDx=0;entryDy=0;" parent="1" source="z5Cy-CX7h6eodBKxODUR-31" edge="1">
          <mxGeometry relative="1" as="geometry">
            <mxPoint x="1260" y="610" as="targetPoint" />
            <Array as="points">
              <mxPoint x="2015" y="640" />
              <mxPoint x="1260" y="640" />
            </Array>
          </mxGeometry>
        </mxCell>
        <mxCell id="z5Cy-CX7h6eodBKxODUR-38" value="Ground level" style="edgeLabel;html=1;align=center;verticalAlign=middle;resizable=0;points=[];" parent="z5Cy-CX7h6eodBKxODUR-36" vertex="1" connectable="0">
          <mxGeometry x="-0.2213" y="1" relative="1" as="geometry">
            <mxPoint x="-92" as="offset" />
          </mxGeometry>
        </mxCell>
        <mxCell id="z5Cy-CX7h6eodBKxODUR-31" value="" style="rhombus;whiteSpace=wrap;html=1;" parent="1" vertex="1">
          <mxGeometry x="1975" y="540.0010344827585" width="80" height="80" as="geometry" />
        </mxCell>
        <mxCell id="z5Cy-CX7h6eodBKxODUR-40" style="edgeStyle=orthogonalEdgeStyle;rounded=0;orthogonalLoop=1;jettySize=auto;html=1;exitX=0;exitY=0.5;exitDx=0;exitDy=0;entryX=1;entryY=0.5;entryDx=0;entryDy=0;" parent="1" source="z5Cy-CX7h6eodBKxODUR-32" edge="1">
          <mxGeometry relative="1" as="geometry">
            <mxPoint x="1330" y="580" as="targetPoint" />
          </mxGeometry>
        </mxCell>
        <mxCell id="z5Cy-CX7h6eodBKxODUR-32" value="act3: Taking lift" style="rounded=1;whiteSpace=wrap;html=1;" parent="1" vertex="1">
          <mxGeometry x="1440" y="550" width="140" height="60" as="geometry" />
        </mxCell>
        <mxCell id="z5Cy-CX7h6eodBKxODUR-39" style="edgeStyle=orthogonalEdgeStyle;rounded=0;orthogonalLoop=1;jettySize=auto;html=1;exitX=0.5;exitY=0;exitDx=0;exitDy=0;entryX=0.5;entryY=1;entryDx=0;entryDy=0;dashed=1;" parent="1" target="z5Cy-CX7h6eodBKxODUR-2" edge="1">
          <mxGeometry relative="1" as="geometry">
            <mxPoint x="1260" y="550" as="sourcePoint" />
          </mxGeometry>
        </mxCell>
        <mxCell id="z5Cy-CX7h6eodBKxODUR-60" value="act2: Moving to room" style="rounded=1;whiteSpace=wrap;html=1;" parent="1" vertex="1">
          <mxGeometry x="1190" y="550" width="140" height="60" as="geometry" />
        </mxCell>
        <mxCell id="7V1TkBBv_Iqoi1SeMiuH-13" style="edgeStyle=orthogonalEdgeStyle;rounded=0;orthogonalLoop=1;jettySize=auto;html=1;entryX=1;entryY=0.5;entryDx=0;entryDy=0;dashed=1;" edge="1" parent="1" target="7V1TkBBv_Iqoi1SeMiuH-12">
          <mxGeometry relative="1" as="geometry">
            <mxPoint x="1500.0285714285715" y="100" as="sourcePoint" />
            <mxPoint x="1330" y="220" as="targetPoint" />
            <Array as="points">
              <mxPoint x="1500" y="220" />
            </Array>
          </mxGeometry>
        </mxCell>
        <mxCell id="7V1TkBBv_Iqoi1SeMiuH-5" value="&lt;p style=&quot;margin:0px;margin-top:4px;text-align:center;&quot;&gt;&amp;lt;&amp;lt;Data&amp;gt;&amp;gt;&lt;br&gt;&lt;b&gt;ParameterIn: Keypad entry&lt;/b&gt;&lt;/p&gt;&lt;p style=&quot;margin:0px;margin-left:8px;text-align:center;&quot;&gt;&lt;br&gt;&lt;/p&gt;" style="shape=rect;html=1;overflow=fill;whiteSpace=wrap;align=center;" vertex="1" parent="1">
          <mxGeometry x="1420" y="60" width="180" height="40" as="geometry" />
        </mxCell>
        <mxCell id="7V1TkBBv_Iqoi1SeMiuH-6" value="Comment1 body" style="shape=note2;boundedLbl=1;whiteSpace=wrap;html=1;size=25;verticalAlign=top;align=center;" vertex="1" parent="1">
          <mxGeometry x="2170" y="370" width="120" height="60" as="geometry" />
        </mxCell>
        <mxCell id="7V1TkBBv_Iqoi1SeMiuH-7" value="Input room number received from keypad hardware using ROS user I/O node" style="shape=note;size=15;align=left;spacingLeft=10;html=1;whiteSpace=wrap;" vertex="1" parent="1">
          <mxGeometry x="1630" y="140" width="270" height="40" as="geometry" />
        </mxCell>
        <mxCell id="7V1TkBBv_Iqoi1SeMiuH-8" value="" style="edgeStyle=none;endArrow=none;exitX=0.4;exitY=0;dashed=1;html=1;rounded=0;entryX=1;entryY=0.5;entryDx=0;entryDy=0;" edge="1" source="7V1TkBBv_Iqoi1SeMiuH-7" parent="1" target="7V1TkBBv_Iqoi1SeMiuH-5">
          <mxGeometry x="1" relative="1" as="geometry">
            <mxPoint x="1800" y="650" as="targetPoint" />
          </mxGeometry>
        </mxCell>
        <mxCell id="7V1TkBBv_Iqoi1SeMiuH-12" value="" style="rounded=0;whiteSpace=wrap;html=1;" vertex="1" parent="1">
          <mxGeometry x="1320" y="210" width="20" height="20" as="geometry" />
        </mxCell>
        <mxCell id="7V1TkBBv_Iqoi1SeMiuH-16" value="Use vision to read room number" style="rounded=1;whiteSpace=wrap;html=1;" vertex="1" parent="1">
          <mxGeometry x="1920" y="230" width="190" height="50" as="geometry" />
        </mxCell>
        <mxCell id="7V1TkBBv_Iqoi1SeMiuH-23" style="edgeStyle=orthogonalEdgeStyle;rounded=0;orthogonalLoop=1;jettySize=auto;html=1;exitX=0.5;exitY=1;exitDx=0;exitDy=0;entryX=0.5;entryY=0;entryDx=0;entryDy=0;" edge="1" parent="1" source="7V1TkBBv_Iqoi1SeMiuH-20" target="z5Cy-CX7h6eodBKxODUR-20">
          <mxGeometry relative="1" as="geometry" />
        </mxCell>
        <mxCell id="7V1TkBBv_Iqoi1SeMiuH-25" value="Correct" style="edgeLabel;html=1;align=center;verticalAlign=middle;resizable=0;points=[];" vertex="1" connectable="0" parent="7V1TkBBv_Iqoi1SeMiuH-23">
          <mxGeometry x="-0.727" relative="1" as="geometry">
            <mxPoint as="offset" />
          </mxGeometry>
        </mxCell>
        <mxCell id="7V1TkBBv_Iqoi1SeMiuH-20" value="" style="rounded=0;whiteSpace=wrap;html=1;" vertex="1" parent="1">
          <mxGeometry x="2040" y="280" width="20" height="20" as="geometry" />
        </mxCell>
        <mxCell id="7V1TkBBv_Iqoi1SeMiuH-22" style="edgeStyle=orthogonalEdgeStyle;rounded=0;orthogonalLoop=1;jettySize=auto;html=1;exitX=0.5;exitY=1;exitDx=0;exitDy=0;entryX=1;entryY=0.75;entryDx=0;entryDy=0;" edge="1" parent="1" source="7V1TkBBv_Iqoi1SeMiuH-21" target="z5Cy-CX7h6eodBKxODUR-17">
          <mxGeometry relative="1" as="geometry" />
        </mxCell>
        <mxCell id="7V1TkBBv_Iqoi1SeMiuH-24" value="Incorrect" style="edgeLabel;html=1;align=center;verticalAlign=middle;resizable=0;points=[];" vertex="1" connectable="0" parent="7V1TkBBv_Iqoi1SeMiuH-22">
          <mxGeometry x="0.0636" relative="1" as="geometry">
            <mxPoint as="offset" />
          </mxGeometry>
        </mxCell>
        <mxCell id="7V1TkBBv_Iqoi1SeMiuH-21" value="" style="rounded=0;whiteSpace=wrap;html=1;" vertex="1" parent="1">
          <mxGeometry x="1960" y="280" width="20" height="20" as="geometry" />
        </mxCell>
      </root>
    </mxGraphModel>
  </diagram>
</mxfile>
